<?xml version="1.0" standalone="no"?>
<!DOCTYPE svg PUBLIC "-//W3C//DTD SVG 20010904//EN"
 "http://www.w3.org/TR/2001/REC-SVG-20010904/DTD/svg10.dtd">
<svg version="1.0" xmlns="http://www.w3.org/2000/svg"
 width="178.000000pt" height="178.000000pt" viewBox="0 0 178.000000 178.000000"
 preserveAspectRatio="xMidYMid meet">

<g transform="translate(0.000000,178.000000) scale(0.100000,-0.100000)"
fill="#000000" stroke="none">
<path d="M800 1770 c-153 -28 -278 -117 -333 -237 -19 -42 -22 -68 -25 -216
l-4 -167 -30 -31 c-28 -27 -30 -34 -26 -84 4 -44 15 -72 58 -142 160 -263 222
-338 313 -382 154 -74 316 -35 425 101 56 68 171 250 214 336 41 82 44 145 8
174 -25 20 -25 22 -25 182 0 144 -3 167 -23 218 -43 108 -155 199 -286 234
-66 18 -208 25 -266 14z m170 -475 c113 -28 179 -38 242 -39 99 -1 97 2 73
-86 -21 -78 -21 -79 33 -82 l47 -3 -1 -42 c0 -33 -15 -65 -69 -155 -183 -303
-245 -358 -399 -358 -80 0 -149 33 -210 101 -53 59 -211 304 -240 371 -18 44
-18 48 -2 72 12 20 25 26 51 26 35 0 35 0 34 43 0 23 -4 68 -8 99 l-7 58 45
14 c69 22 89 25 176 21 48 -2 142 -18 235 -40z"/>
<path d="M535 334 c-36 -22 -148 -60 -230 -79 l-30 -7 45 -40 c25 -22 75 -58
112 -80 263 -156 580 -168 853 -33 85 42 204 127 212 151 2 6 -30 18 -73 28
-42 10 -105 33 -140 50 l-64 33 -33 -61 c-123 -225 -449 -219 -579 11 -17 29
-31 53 -31 52 -1 0 -20 -12 -42 -25z"/>
</g>
</svg>
